<svg version="1.1" id="Layer_1" xmlns="http://www.w3.org/2000/svg" xmlns:xlink="http://www.w3.org/1999/xlink" x="0px" y="0px"
	 width="100%" viewBox="0 0 217 237" enable-background="new 0 0 217 237" xml:space="preserve">
<path fill="#4E49C5" opacity="1.000000" stroke="none" 
	d="
M218.000000,108.000000 
	C218.000000,122.354225 218.000000,136.708450 217.614349,151.362244 
	C216.845459,152.163330 216.222733,152.617798 216.113678,153.173141 
	C212.531509,171.413391 204.062531,187.185883 191.843018,200.839905 
	C185.986115,190.310379 179.032486,181.279984 168.072021,175.579193 
	C165.378342,174.069565 162.882355,172.848679 160.227295,171.298370 
	C158.138351,160.668243 151.274155,155.630066 141.556244,153.711884 
	C138.174698,153.044403 134.754578,152.572281 131.211823,151.648010 
	C130.963913,150.515045 130.856277,149.745041 130.963165,148.696472 
	C146.728043,139.989822 156.333923,127.287300 159.218277,109.665771 
	C159.367355,108.755028 160.444382,107.532829 161.325623,107.280441 
	C167.065796,105.636444 168.399963,101.401314 168.309769,96.164505 
	C168.240967,92.170357 168.361679,88.169807 168.186035,84.181450 
	C167.980896,79.523224 165.725784,76.401833 160.884216,75.077225 
	C160.922409,63.481316 161.012878,52.301613 161.079391,41.121773 
	C161.093475,38.753593 161.020157,36.384895 161.325485,34.114334 
	C168.125641,38.655426 175.152176,42.468487 180.943924,47.659286 
	C198.729156,63.599133 211.300491,82.869614 216.129227,106.662643 
	C216.240799,107.212341 217.354004,107.558762 218.000000,108.000000 
z"/>
<path fill="#4E49C5" opacity="1.000000" stroke="none" 
	d="
M0.999999,149.000000 
	C1.000000,147.285629 1.000000,145.571243 1.246619,143.095306 
	C1.328825,133.889145 1.164412,125.444572 1.000000,117.000000 
	C1.000000,115.285622 1.000000,113.571251 1.388943,111.594536 
	C3.126898,106.712029 4.430725,102.078094 5.832407,97.473961 
	C13.697052,71.640785 30.360260,52.562428 52.158478,37.518017 
	C54.068348,36.199886 56.660755,35.870689 58.932693,35.494461 
	C58.783203,37.043785 58.698971,38.192768 58.481579,39.315971 
	C56.190121,51.155178 54.490597,63.000793 57.572220,75.075340 
	C50.654896,79.902374 48.151466,97.899948 53.396339,104.053787 
	C54.518963,105.370972 56.466297,105.951859 57.774693,107.153870 
	C58.986977,108.267616 60.513508,109.642647 60.769440,111.101273 
	C63.516964,126.760139 71.714195,138.504639 85.453079,146.447906 
	C86.720482,147.180679 87.851555,148.149261 88.984924,149.318634 
	C88.608948,150.396515 88.293968,151.164108 87.568954,151.962875 
	C85.369156,152.303909 83.577660,152.604095 81.789909,152.925186 
	C71.219139,154.823807 61.756054,158.088120 59.606590,170.888962 
	C56.777981,172.572418 54.253929,174.084808 51.390034,175.685883 
	C40.711742,181.768936 33.145721,190.296860 27.661903,200.900848 
	C14.859680,186.632904 6.794568,170.293533 2.945651,151.828857 
	C2.730271,150.795609 1.668060,149.938889 0.999999,149.000000 
z"/>
<path fill="#2A3448" opacity="1.000000" stroke="none" 
	d="
M59.911144,170.717896 
	C61.756054,158.088120 71.219139,154.823807 81.789909,152.925186 
	C83.577660,152.604095 85.369156,152.303909 87.633606,152.428848 
	C88.180275,156.895752 88.252258,160.927856 88.252472,165.365997 
	C88.245758,166.863235 88.310814,167.954453 88.296234,169.356171 
	C88.459778,170.470078 88.702942,171.273499 88.936081,172.450256 
	C90.754669,180.303833 95.324013,185.457504 102.516418,188.011566 
	C116.422737,192.949799 131.278656,183.213806 131.531174,167.301331 
	C131.573105,166.639984 131.488815,166.095917 131.336182,165.070404 
	C131.179718,161.722076 131.091599,158.855164 131.108856,155.602112 
	C131.260178,154.147644 131.306137,153.079285 131.352081,152.010941 
	C134.754578,152.572281 138.174698,153.044403 141.556244,153.711884 
	C151.274155,155.630066 158.138351,160.668243 159.950562,171.574265 
	C156.648773,180.870239 150.181854,186.766998 142.581360,192.043640 
	C137.953339,193.313065 136.515442,195.967484 136.744614,200.509018 
	C137.163239,208.805679 136.686844,217.145355 137.006088,225.450851 
	C137.075089,227.246048 138.930756,228.972565 139.963455,230.730713 
	C140.997391,228.961945 142.871338,227.219101 142.926880,225.420120 
	C143.250137,214.951370 143.146286,204.469452 143.533539,193.919830 
	C153.848221,190.347839 162.267517,184.747299 168.269684,175.867935 
	C179.032486,181.279984 185.986115,190.310379 191.705933,201.136017 
	C185.844559,207.034195 180.259491,212.695999 174.031799,217.529877 
	C162.255920,226.670227 148.754593,232.348099 134.292755,235.841232 
	C133.091446,236.131393 132.092804,237.260635 131.000000,238.000000 
	C117.312439,238.000000 103.624878,238.000000 89.432495,237.628708 
	C86.873329,236.451782 84.818993,235.646149 82.808678,234.383911 
	C82.869347,222.207230 82.793839,210.485992 82.947586,198.767746 
	C83.009880,194.019592 80.611328,192.413666 76.139526,192.234039 
	C74.752319,190.802063 73.571877,189.675491 72.352440,188.592865 
	C66.766624,183.633789 61.138409,178.708923 59.911144,170.717896 
z"/>
<path fill="#000000" opacity="1.000000" stroke="none" 
	d="
M58.936134,35.082150 
	C56.660755,35.870689 54.068348,36.199886 52.158478,37.518017 
	C30.360260,52.562428 13.697052,71.640785 5.832407,97.473961 
	C4.430725,102.078094 3.126898,106.712029 1.388943,111.166100 
	C1.000000,74.402596 1.000000,37.805199 1.000000,1.000000 
	C41.353989,1.000000 81.708336,1.000000 122.435600,1.346724 
	C121.551849,2.399421 120.366402,3.505602 119.026535,3.744017 
	C112.211266,4.956721 105.253731,5.518291 98.542671,7.127829 
	C91.414917,8.837307 84.182152,10.771345 77.583252,13.862554 
	C68.528801,18.104053 63.438599,26.488228 58.936134,35.082150 
z"/>
<path fill="#000000" opacity="1.000000" stroke="none" 
	d="
M218.000000,107.531342 
	C217.354004,107.558762 216.240799,107.212341 216.129227,106.662643 
	C211.300491,82.869614 198.729156,63.599133 180.943924,47.659286 
	C175.152176,42.468487 168.125641,38.655426 160.995102,34.007679 
	C159.621841,32.938713 158.892868,32.092976 158.216965,31.206758 
	C154.762207,26.677073 151.791153,21.648571 147.735580,17.745676 
	C144.097168,14.244238 138.888489,12.190893 142.130707,5.145858 
	C138.787140,5.506449 136.401489,5.763732 134.008057,6.011034 
	C134.000290,6.001051 133.980637,5.985691 133.956741,5.634151 
	C131.932465,4.651625 129.932083,4.020637 127.264320,3.179138 
	C127.264229,3.178375 127.132118,2.089187 127.000000,1.000000 
	C157.266174,1.000000 187.532333,1.000000 218.000000,1.000000 
	C218.000000,36.353973 218.000000,71.708328 218.000000,107.531342 
z"/>
<path fill="#1D1412" opacity="1.000000" stroke="none" 
	d="
M126.600006,1.000000 
	C127.132118,2.089187 127.264229,3.178375 127.264320,3.179138 
	C129.932083,4.020637 131.932465,4.651625 133.868286,5.680583 
	C133.803726,6.078554 133.803085,6.332869 133.803085,6.332869 
	C133.803085,6.332869 134.015839,6.021016 134.015839,6.021016 
	C136.401489,5.763732 138.787140,5.506449 142.130707,5.145858 
	C138.888489,12.190893 144.097168,14.244238 147.735580,17.745676 
	C151.791153,21.648571 154.762207,26.677073 158.216965,31.206758 
	C158.892868,32.092976 159.621841,32.938713 160.656723,33.909779 
	C161.020157,36.384895 161.093475,38.753593 161.079391,41.121773 
	C161.012878,52.301613 160.922409,63.481316 160.537476,75.116669 
	C159.221085,74.256226 157.652267,73.072098 157.302231,71.598465 
	C156.387711,67.748451 155.940796,63.780342 155.427414,59.843674 
	C154.611374,53.586102 152.862640,48.061783 147.193298,44.141678 
	C143.141052,41.339710 139.867798,37.434101 136.034698,34.278767 
	C134.821518,33.280090 132.915298,32.619865 131.339661,32.645020 
	C119.385529,32.835869 107.412155,33.828617 95.490318,33.374805 
	C86.598717,33.036343 80.000816,35.036480 73.850388,42.067905 
	C68.518600,48.163414 64.346230,54.247147 62.894844,62.139038 
	C62.355389,65.072319 62.348747,68.149300 61.450268,70.952797 
	C60.953648,72.502388 59.114010,73.621574 57.879784,74.934784 
	C54.490597,63.000793 56.190121,51.155178 58.481579,39.315971 
	C58.698971,38.192768 58.783203,37.043785 58.932693,35.494461 
	C63.438599,26.488228 68.528801,18.104053 77.583252,13.862554 
	C84.182152,10.771345 91.414917,8.837307 98.542671,7.127829 
	C105.253731,5.518291 112.211266,4.956721 119.026535,3.744017 
	C120.366402,3.505602 121.551849,2.399421 122.904259,1.346724 
	C124.066673,1.000000 125.133339,1.000000 126.600006,1.000000 
z"/>
<path fill="#000000" opacity="1.000000" stroke="none" 
	d="
M82.764656,234.840546 
	C84.818993,235.646149 86.873329,236.451782 88.963837,237.628708 
	C59.739346,238.000000 30.478689,238.000000 1.000000,238.000000 
	C1.000000,208.646133 1.000000,179.291718 0.999999,149.468658 
	C1.668060,149.938889 2.730271,150.795609 2.945651,151.828857 
	C6.794568,170.293533 14.859680,186.632904 27.802441,201.203476 
	C33.534393,206.617401 38.428085,212.106201 44.166210,216.489609 
	C53.208603,223.397156 62.936298,229.333145 74.376640,232.367706 
	C75.344383,232.764771 76.143814,232.912003 77.149605,233.348312 
	C79.158859,234.038452 80.961754,234.439499 82.764656,234.840546 
z"/>
<path fill="#000000" opacity="1.000000" stroke="none" 
	d="
M131.468658,238.000000 
	C132.092804,237.260635 133.091446,236.131393 134.292755,235.841232 
	C148.754593,232.348099 162.255920,226.670227 174.031799,217.529877 
	C180.259491,212.695999 185.844559,207.034195 191.856827,201.450043 
	C204.062531,187.185883 212.531509,171.413391 216.113678,153.173141 
	C216.222733,152.617798 216.845459,152.163330 217.614349,151.830902 
	C218.000000,180.593994 218.000000,209.187988 218.000000,238.000000 
	C189.312805,238.000000 160.625061,238.000000 131.468658,238.000000 
z"/>
<path fill="#4148CC" opacity="1.000000" stroke="none" 
	d="
M1.000000,117.468651 
	C1.164412,125.444572 1.328825,133.889145 1.246619,142.666870 
	C1.000000,134.645767 1.000000,126.291534 1.000000,117.468651 
z"/>
<path fill="#FEDAB4" opacity="1.000000" stroke="none" 
	d="
M57.572216,75.075340 
	C59.114010,73.621574 60.953648,72.502388 61.450268,70.952797 
	C62.348747,68.149300 62.355389,65.072319 62.894844,62.139038 
	C64.346230,54.247147 68.518600,48.163414 73.850388,42.067905 
	C80.000816,35.036480 86.598717,33.036343 95.490318,33.374805 
	C107.412155,33.828617 119.385529,32.835869 131.339661,32.645020 
	C132.915298,32.619865 134.821518,33.280090 136.034698,34.278767 
	C139.867798,37.434101 143.141052,41.339710 147.193298,44.141678 
	C152.862640,48.061783 154.611374,53.586102 155.427414,59.843674 
	C155.940796,63.780342 156.387711,67.748451 157.302231,71.598465 
	C157.652267,73.072098 159.221085,74.256226 160.581223,75.532837 
	C165.725784,76.401833 167.980896,79.523224 168.186035,84.181450 
	C168.361679,88.169807 168.240967,92.170357 168.309769,96.164505 
	C168.399963,101.401314 167.065796,105.636444 161.325623,107.280441 
	C160.444382,107.532829 159.367355,108.755028 159.218277,109.665771 
	C156.333923,127.287300 146.728043,139.989822 130.612000,148.770065 
	C116.364044,154.653885 102.696999,154.709656 89.045937,149.008331 
	C87.851555,148.149261 86.720482,147.180679 85.453079,146.447906 
	C71.714195,138.504639 63.516964,126.760139 60.769440,111.101273 
	C60.513508,109.642647 58.986977,108.267616 57.774693,107.153870 
	C56.466297,105.951859 54.518963,105.370972 53.396339,104.053787 
	C48.151466,97.899948 50.654896,79.902374 57.572216,75.075340 
M97.292587,118.934654 
	C97.062515,118.951576 96.832443,118.968491 96.031303,118.662186 
	C92.812462,117.808189 92.292053,119.953537 93.215935,121.949028 
	C94.706955,125.169464 96.893906,128.067688 99.169647,131.706512 
	C107.141449,137.296722 114.369865,137.054642 121.583580,130.656204 
	C123.220299,127.672607 125.063301,124.773300 126.342155,121.643478 
	C126.644821,120.902748 125.052704,119.387810 123.362137,118.107780 
	C114.901054,118.353676 106.439980,118.599579 97.292587,118.934654 
M138.475739,71.736626 
	C142.462479,72.584412 146.449234,73.432198 150.542984,74.302742 
	C149.500900,69.649605 145.018829,65.895432 139.401703,65.259758 
	C133.498840,64.591759 127.769066,64.936699 122.933029,70.470284 
	C128.422760,70.899742 133.012726,71.258812 138.475739,71.736626 
M75.850327,72.899002 
	C82.802925,71.978920 89.755516,71.058830 96.792747,70.127541 
	C92.531158,65.050049 84.411324,63.436008 77.171524,66.391823 
	C73.595352,67.851875 70.179939,69.753304 69.759796,74.898048 
	C71.988708,74.147766 73.525406,73.630493 75.850327,72.899002 
M105.395554,109.575096 
	C114.356438,110.802910 118.090073,109.305397 119.589500,103.464325 
	C112.877007,103.464325 106.284058,103.464325 99.691109,103.464325 
	C99.436501,103.913651 99.181892,104.362984 98.927284,104.812309 
	C100.832832,106.298958 102.738380,107.785599 105.395554,109.575096 
M85.978676,81.186783 
	C78.242043,80.936737 74.043869,83.651886 74.448357,88.151352 
	C77.530579,87.394104 80.674561,86.014053 83.816559,86.018524 
	C87.038643,86.023125 90.258789,87.382034 93.479782,88.148209 
	C93.746223,87.683716 94.012665,87.219231 94.279106,86.754745 
	C91.773582,84.950020 89.268059,83.145294 85.978676,81.186783 
M145.612289,87.951782 
	C143.828751,82.957230 139.979294,80.556183 134.631912,81.102921 
	C130.253296,81.550598 127.014999,84.392738 126.204597,89.276382 
	C132.579865,84.563972 138.810120,85.151131 145.612289,87.951782 
z"/>
<path fill="#E4C5A3" opacity="1.000000" stroke="none" 
	d="
M88.984924,149.318634 
	C102.696999,154.709656 116.364044,154.653885 130.397491,149.048615 
	C130.856277,149.745041 130.963913,150.515045 131.211823,151.648010 
	C131.306137,153.079285 131.260178,154.147644 130.771133,155.750580 
	C119.913803,160.800354 109.103355,161.007248 98.156265,159.053116 
	C90.113510,157.617447 90.133568,157.505066 88.324234,164.959976 
	C88.252258,160.927856 88.180275,156.895752 88.043640,152.397659 
	C88.293968,151.164108 88.608948,150.396515 88.984924,149.318634 
z"/>
<path fill="#232C3E" opacity="1.000000" stroke="none" 
	d="
M142.952057,192.014481 
	C150.181854,186.766998 156.648773,180.870239 160.109619,171.903687 
	C162.882355,172.848679 165.378342,174.069565 168.072021,175.579193 
	C162.267517,184.747299 153.848221,190.347839 143.426331,193.601852 
	C142.965591,192.908844 142.958832,192.461655 142.952057,192.014481 
z"/>
<path fill="#293348" opacity="1.000000" stroke="none" 
	d="
M74.208336,232.117874 
	C62.936298,229.333145 53.208603,223.397156 44.166210,216.489609 
	C38.428085,212.106201 33.534393,206.617401 28.121471,201.321716 
	C33.145721,190.296860 40.711742,181.768936 51.580688,176.011841 
	C58.033703,184.943802 65.533806,191.362167 76.442947,193.426697 
	C76.527245,206.452393 76.494301,219.082153 76.185799,231.822311 
	C75.342941,231.994431 74.775642,232.056152 74.208336,232.117874 
z"/>
<path fill="#232B3D" opacity="1.000000" stroke="none" 
	d="
M76.325706,193.030762 
	C65.533806,191.362167 58.033703,184.943802 51.920532,175.923157 
	C54.253929,174.084808 56.777981,172.572418 59.606590,170.888962 
	C61.138409,178.708923 66.766624,183.633789 72.352440,188.592865 
	C73.571877,189.675491 74.752319,190.802063 76.238647,192.352386 
	C76.526573,192.796387 76.325706,193.030762 76.325706,193.030762 
z"/>
<path fill="#FEDAB3" opacity="1.000000" stroke="none" 
	d="
M88.252464,165.365997 
	C90.133568,157.505066 90.113510,157.617447 98.156265,159.053116 
	C109.103355,161.007248 119.913803,160.800354 130.665771,156.136703 
	C131.091599,158.855164 131.179718,161.722076 131.237762,165.288025 
	C131.273453,166.464218 131.339203,166.941406 131.404953,167.418579 
	C131.278656,183.213806 116.422737,192.949799 102.516418,188.011566 
	C95.324013,185.457504 90.754669,180.303833 88.992561,172.133575 
	C88.831329,170.644257 88.603600,169.844955 88.375862,169.045670 
	C88.310814,167.954453 88.245758,166.863235 88.252464,165.365997 
z"/>
<path fill="#EAE9EB" opacity="1.000000" stroke="none" 
	d="
M76.442947,193.426697 
	C76.325706,193.030762 76.526573,192.796387 76.427444,192.678040 
	C80.611328,192.413666 83.009880,194.019592 82.947586,198.767746 
	C82.793839,210.485992 82.869347,222.207230 82.808678,234.383911 
	C80.961754,234.439499 79.158859,234.038452 77.084885,232.991608 
	C76.696312,232.134537 76.578835,231.923233 76.461349,231.711929 
	C76.494301,219.082153 76.527245,206.452393 76.442947,193.426697 
z"/>
<path fill="#F0F0F0" opacity="1.000000" stroke="none" 
	d="
M142.581360,192.043640 
	C142.958832,192.461655 142.965591,192.908844 143.079559,193.673996 
	C143.146286,204.469452 143.250137,214.951370 142.926880,225.420120 
	C142.871338,227.219101 140.997391,228.961945 139.963455,230.730713 
	C138.930756,228.972565 137.075089,227.246048 137.006088,225.450851 
	C136.686844,217.145355 137.163239,208.805679 136.744614,200.509018 
	C136.515442,195.967484 137.953339,193.313065 142.581360,192.043640 
z"/>
<path fill="#4E49C5" opacity="1.000000" stroke="none" 
	d="
M131.531174,167.301331 
	C131.339203,166.941406 131.273453,166.464218 131.306122,165.769440 
	C131.488815,166.095917 131.573105,166.639984 131.531174,167.301331 
z"/>
<path fill="#E4C5A3" opacity="1.000000" stroke="none" 
	d="
M88.296234,169.356171 
	C88.603600,169.844955 88.831329,170.644257 89.002579,171.760223 
	C88.702942,171.273499 88.459778,170.470078 88.296234,169.356171 
z"/>
<path fill="#000000" opacity="1.000000" stroke="none" 
	d="
M134.008057,6.011034 
	C134.015839,6.021016 133.803085,6.332869 133.803085,6.332869 
	C133.803085,6.332869 133.803726,6.078554 133.892181,6.032123 
	C133.980637,5.985691 134.000290,6.001051 134.008057,6.011034 
z"/>
<path fill="#8A8C99" opacity="1.000000" stroke="none" 
	d="
M76.185799,231.822311 
	C76.578835,231.923233 76.696312,232.134537 76.878525,232.702515 
	C76.143814,232.912003 75.344383,232.764771 74.376640,232.367706 
	C74.775642,232.056152 75.342941,231.994431 76.185799,231.822311 
z"/>
<path fill="#53463B" opacity="1.000000" stroke="none" 
	d="
M98.786919,131.102005 
	C96.893906,128.067688 94.706955,125.169464 93.215935,121.949028 
	C92.292053,119.953537 92.812462,117.808189 96.363297,119.224144 
	C98.387863,120.818550 100.027199,122.619682 101.782867,122.741287 
	C107.352608,123.127068 112.994423,123.206474 118.546272,122.709976 
	C120.435959,122.540977 122.141418,120.311928 124.077995,118.848938 
	C124.224937,118.673676 124.332191,118.229004 124.332191,118.229004 
	C125.052704,119.387810 126.644821,120.902748 126.342155,121.643478 
	C125.063301,124.773300 123.220299,127.672607 121.054329,130.548203 
	C116.114815,129.765213 111.707565,128.614395 107.293213,128.586487 
	C104.463196,128.568604 101.622711,130.206406 98.786919,131.102005 
z"/>
<path fill="#4D4236" opacity="1.000000" stroke="none" 
	d="
M138.039215,71.677261 
	C133.012726,71.258812 128.422760,70.899742 122.933029,70.470284 
	C127.769066,64.936699 133.498840,64.591759 139.401703,65.259758 
	C145.018829,65.895432 149.500900,69.649605 150.542984,74.302742 
	C146.449234,73.432198 142.462479,72.584412 138.039215,71.677261 
z"/>
<path fill="#4C4136" opacity="1.000000" stroke="none" 
	d="
M75.456223,73.006104 
	C73.525406,73.630493 71.988708,74.147766 69.759796,74.898048 
	C70.179939,69.753304 73.595352,67.851875 77.171524,66.391823 
	C84.411324,63.436008 92.531158,65.050049 96.792747,70.127541 
	C89.755516,71.058830 82.802925,71.978920 75.456223,73.006104 
z"/>
<path fill="#F4526C" opacity="1.000000" stroke="none" 
	d="
M98.978287,131.404266 
	C101.622711,130.206406 104.463196,128.568604 107.293213,128.586487 
	C111.707565,128.614395 116.114815,129.765213 120.754883,130.708069 
	C114.369865,137.054642 107.141449,137.296722 98.978287,131.404266 
z"/>
<path fill="#D8BA99" opacity="1.000000" stroke="none" 
	d="
M105.019745,109.423676 
	C102.738380,107.785599 100.832832,106.298958 98.927284,104.812309 
	C99.181892,104.362984 99.436501,103.913651 99.691109,103.464325 
	C106.284058,103.464325 112.877007,103.464325 119.589500,103.464325 
	C118.090073,109.305397 114.356438,110.802910 105.019745,109.423676 
z"/>
<path fill="#F5F5F4" opacity="1.000000" stroke="none" 
	d="
M123.931053,119.024193 
	C122.141418,120.311928 120.435959,122.540977 118.546272,122.709976 
	C112.994423,123.206474 107.352608,123.127068 101.782867,122.741287 
	C100.027199,122.619682 98.387863,120.818550 96.648834,119.385750 
	C96.832443,118.968491 97.062515,118.951576 98.106064,118.921928 
	C107.256706,118.947533 115.593880,118.985863 123.931053,119.024193 
z"/>
<path fill="#54483C" opacity="1.000000" stroke="none" 
	d="
M86.370605,81.263672 
	C89.268059,83.145294 91.773582,84.950020 94.279106,86.754745 
	C94.012665,87.219231 93.746223,87.683716 93.479782,88.148209 
	C90.258789,87.382034 87.038643,86.023125 83.816559,86.018524 
	C80.674561,86.014053 77.530579,87.394104 74.448357,88.151352 
	C74.043869,83.651886 78.242043,80.936737 86.370605,81.263672 
z"/>
<path fill="#51463A" opacity="1.000000" stroke="none" 
	d="
M145.328094,88.146667 
	C138.810120,85.151131 132.579865,84.563972 126.204597,89.276382 
	C127.014999,84.392738 130.253296,81.550598 134.631912,81.102921 
	C139.979294,80.556183 143.828751,82.957230 145.328094,88.146667 
z"/>
<path fill="#D5CEC7" opacity="1.000000" stroke="none" 
	d="
M124.077995,118.848938 
	C115.593880,118.985863 107.256706,118.947533 98.449219,118.877342 
	C106.439980,118.599579 114.901054,118.353676 123.847168,118.168396 
	C124.332191,118.229004 124.224937,118.673676 124.077995,118.848938 
z"/>
</svg>